<svg xmlns="http://www.w3.org/2000/svg" width="684.3" height="695">
  <path fill="#f8f10c" d="M155 466.7a24248.1 24248.1 0 0 0 0-277.7c0-13.8.2-16.7 1-16.7.6 0 1.5.6 2 1.4.4.9 1.9 3.3 3.2 5.4l2.6 3.8.2 51.6c.7 119.3.6 181-.3 205.7-.5 14-1 25.8-1.2 26.4-.4 1-6.8 1.2-7.5.1zm25.6.2c-.1-.3-.4-62-.5-137.1l-.3-151.6c0-13.2 0-15 1.1-15.1.9-.2 1.6.7 2.5 2.8a29 29 0 0 0 3.2 5.7l2 2.5.2 40.3c.9 158.3.4 249.2-1.5 252.3-.6.9-6.2 1.1-6.7.2zm26-61c.1-33.8 0-101.7-.3-151-.3-49-.4-89.7-.2-90.3.6-1.7 1.7-1 3 1.9.7 1.5 2.2 4 3.4 5.6l2.2 2.8.2 41c1 152.6.4 247.7-1.5 250.8-.2.4-2 .8-3.9.8h-3.4zm26-62c0-68.1-.2-138.2-.5-155.8-.6-30.7-.5-32 .8-31.8.7.1 2.3 2 3.4 4.2s2.6 4.6 3.3 5.4c1 1.1 1.2 6.9 1.5 52.5 1 149.6.7 206.4-.9 240l-.4 9h-7.2z"/>
  <path fill="#ee486f" d="M502.4 467c-.2-5.2.2-88.1.4-102.3 1.3-72.4 1.3-71.6 0-76.7-1.6-5.8-2-11-1.1-11.6.4-.3.7-1.4.7-2.5 0-4.6 3.9-6.2 5.7-2.4 2.7 5.8 3 7.1 2.4 14.2-.6 7.6-.3 133.3.4 161.8.3 12.6.2 17.2-.5 18-1 1.2-8 2.5-8 1.5zm-55.5-3.7c-1.4-3.2-1.4-4-.7-8.8.5-3.4 1-51.7 1.3-140 .8-203.7.8-212.8-.4-221.8-2-15.3-.4-35.2 2.8-35.2 1.7 0 3.2 3.2 3.8 8.4.3 3 1 6.2 1.4 7 .5 1 .5 6.3.1 16a15661.7 15661.7 0 0 0 1 374.2l.2 3.4-4 .2-4 .2zm6.4-81.7c.3-.4.1-1-.3-1.2-.4-.2-.8 0-.8.7 0 1.3.5 1.5 1.1.5zm.4-112.3c0-.4-.3-.8-.7-.8-.4 0-.8.4-.8.8s.4.7.8.7.7-.3.7-.7zm17.6 195.2c-1-2-1.1-3.2-.4-8 .5-3.8 1-50.4 1.3-134 .8-193.7.8-202.9-.4-211.5-2.1-15.5-.3-35 3.1-33.9 1.5.5 3.5 5.3 3.5 8.2 0 1.5.5 4 1 5.6.9 2.3 1 5.8.5 16.7a14715 14715 0 0 0-.4 236.1c.2 34.2 1.2 115.4 1.4 120.2l.2 2.6-4.3.2c-4.1.2-4.3.2-5.5-2.2zm6.2-78.6c-.3-.6-.5-.4-.5.4s.1 1.3.4 1c.2-.2.3-.9 0-1.4zm1-106c0-.5-.4-1-.8-1.3-.4-.2-.8.1-.8.7 0 .7.4 1.2.8 1.2s.7-.3.7-.7zm49 141.2c1-71.4 1-74.3-.7-79.8-.8-3-1-5-.6-5.6.4-.5.9-1.9 1.2-3 .4-1.9.8-2.1 2.9-2 4.6.5 4.4-1.6 4.6 65.3.2 33.4.5 62.6.8 65 .3 2.4.3 4.3-.2 4.6-.3.2-2.4.7-4.6 1l-4 .5z"/>
  <path fill="#2d2d2d" d="M302 673.8c-.8-2 1.1-5.2 6.1-10.1 4.8-4.8 5.8-7 4-8.8-1.4-1.3-4-1.1-6 .6-1.7 1.2-2.1 1.3-3.4.4-1.8-1.4-.7-3.3 3-5.2 2.5-1.2 3.1-1.2 6-.3 2.4.8 3.4 1.6 4.5 3.8 1.3 2.7 1.3 3 .1 6.2-.8 2.1-2.5 4.4-5 6.4-2 1.7-3.6 3.3-3.6 3.7 0 .3 2 .7 4.3.9 3.7.1 4.3.4 4.3 1.7 0 1.3-.6 1.5-7 1.7-5.7.2-7 0-7.3-1zm24.8-.5c-2.9-2.2-4.1-5.7-4.1-11.5 0-7.9 2.8-11.6 8.8-11.6 2.6 0 3.7.5 5.4 2.2 5.4 5.4 4.5 18.3-1.5 21.4-3 1.6-6.2 1.4-8.6-.5zm7-3.6c4.1-4 2.2-15.7-2.5-15.7-2.9 0-4.5 3.2-4.5 8.7 0 3.9.3 5 1.8 6.6 2.2 2.3 3.3 2.4 5.2.4zm20.9 4.8a32 32 0 0 1 0-7.5c.2-3.8 0-7-.3-7s-1.1.5-1.8 1.1c-1.5 1.4-3.7.7-3.7-1 0-.7 1.3-3.2 3-5.6 2.6-3.6 3.4-4.3 5-4.1l1.9.2v24l-1.8.2c-1 .1-2 0-2.3-.3zm14.5-1c-2.7-1.7-3-3.4-1-4.5 1.1-.6 1.9-.4 3.3.7 2.1 1.7 5 2 6.4.6 1.8-1.8 1-2.8-2.3-2.8-3.7 0-6-1.4-7.7-4.5-2-4-.8-9 2.8-11.6a11 11 0 0 1 5.3-1.2c3.2 0 4 .4 6.2 2.6 2.7 2.7 3 4 2.6 11.3-.2 4.4-1.5 7.1-4.2 9.3-2.6 2-8 2-11.4 0zm10-11c1.4-1.5 1.4-5.4-.2-7.1-2.7-3.1-7.7-.7-7.7 3.8 0 3.9 5 6 7.8 3.3zM127.7 648c-2.5-.8-5.7-3.6-5.7-5 0-.5.7-1.3 1.5-1.8 1.3-.7 2.1-.5 4.5 1.2 3 2.1 5 2 7.6-.2 2.2-1.9 1.6-2.4-2.8-2.4-4.8 0-7.6-1.2-10.3-4.5-3.8-4.5-2.2-12.8 3-16.3 1.7-1 3.4-1.3 9.4-1.1 4 0 7.7.3 8.1.6a76 76 0 0 1-1.6 24c-2 4.7-8.3 7.2-13.7 5.5zm8.3-14.3c1.3-1.3 1.7-2.5 1.7-4.8 0-2.7-.4-3.5-2.4-5.2-2.8-2.4-5.3-2.1-7.9.8-5.3 5.9 2.8 14.5 8.6 9.2zm-106.2 5.6l-.2-7.8v-7l-5-7.5a35 35 0 0 1-4.7-8c.6-1 4.4-.8 5.7.3.6.5 2.2 2.7 3.5 4.8 1.4 2.2 2.8 4 3.2 4 .4 0 1.6-1.6 2.7-3.5 3-5.1 4.3-6.3 7.3-6.3 1.4 0 2.6.3 2.6.7 0 .4-2.3 4-5 8l-5.1 7.4v15l-2.4.2c-1.4.2-2.5 0-2.6-.3zm20.3-1.2c-6.5-4.3-6.8-14.2-.6-18.7 3-2.2 10.1-2.6 13.2-.6 3.4 2.1 5.4 5.7 5.4 9.7 0 6.6-4.8 11.3-11.7 11.3-2.7 0-4.5-.5-6.3-1.7zm11-4.7c2-2 2.4-6.6.8-8.7a8.3 8.3 0 0 0-5.8-2.9c-2.2 0-6 4-6 6.4 0 6.2 6.7 9.4 11 5.2zm14.8 5c-3-1.9-3.9-4.7-4.2-13.2l-.2-6.8h5.2l.4 7.2c.4 7.8 1.2 9.7 4.2 9.7s4.3-3.1 4.4-10.4l.1-6.5H91l.4 7.4c.3 6.7.5 7.4 2.2 8.7 1.6 1.2 1.8 1.6 1 3.3-1 2.3-2.5 2.5-5 .8-1.7-1.1-2-1.1-3.6 0-2.3 1.6-7.2 1.5-10-.3zM98 629v-10.8l6.1-.5c11.1-.8 13.6 1.7 13.7 14.1v7.5h-5.2l.3-5c.3-6.5-1-11-3.3-12-1.7-.8-2.2-.6-4 1.2-1.8 1.8-2 2.6-2.3 8.9l-.4 6.9-2.4.2-2.5.3V629zm61.8 9.7c-.3-.5-.3-7.5-.2-15.5l.2-14.6h19.4v1.9c0 1.8 0 1.9-7 2.2l-7.2.4v8.2l6.4.4c6.2.4 6.3.4 6.3 2.3 0 1.8-.1 1.8-6.3 2.2l-6.4.4v8.2l7.1.4c7 .3 7.1.4 7.1 2.2v1.9l-9.5.2c-7.4.2-9.7 0-10-.8zm27.5-.5c-3.1-2-4.6-4.3-5.1-8.4-1.2-8.7 7.8-15.1 16.4-11.5 2.9 1.2 5 3.8 4.4 5.4-.6 1.8-3 2.6-4 1.5-2-1.9-4.8-3.5-6.1-3.5-2.3 0-5.8 4-5.8 6.7 0 3 3.5 6.8 6.2 6.8 1 0 3-.9 4.2-2 1.9-1.5 2.5-1.7 3.8-1 2.3 1.2 1.6 3.7-1.4 5.8a13 13 0 0 1-12.6.2zm23.7-.2c-3.6-2.4-5.3-6-5-10.5.6-6.3 5.1-10.3 11.8-10.3a11 11 0 0 1 11.2 11.2c0 6.6-4.8 11.3-11.7 11.3-2.7 0-4.5-.5-6.3-1.7zm11-4.7c2-2 2.4-6.6.8-8.7a8.3 8.3 0 0 0-5.8-2.9c-2.2 0-6 4-6 6.4 0 6.2 6.7 9.4 11 5.2zm10.8-4.3v-10.8l6-.5c11.1-.8 13.6 1.7 13.7 14.1v7.5h-5.2l.3-5c.3-6.5-.9-11-3.3-12-1.7-.8-2.1-.6-4 1.2-1.7 1.8-2 2.6-2.3 8.9l-.4 6.9-2.4.2-2.4.3zm27.6 9c-3.6-2.4-5.4-6-5-10.5.6-6.3 5.1-10.3 11.8-10.3a11 11 0 0 1 11.2 11.2c0 6.6-4.8 11.3-11.7 11.3-2.7 0-4.5-.5-6.3-1.7zm11-4.7c2-2 2.4-6.6.8-8.7a8.3 8.3 0 0 0-5.8-2.9c-2.2 0-6 4-6 6.4 0 6.2 6.7 9.4 11 5.2zm10.7-4.3v-10.8l5.8-.5c5-.4 6-.3 8.2 1 2.5 1.5 2.5 1.5 5 0 3-1.9 4.7-1.9 7.7 0 3.5 2 4.9 6.4 4.6 14.2l-.2 6.4h-4.5l-.4-7.2c-.5-7.5-1.3-9.6-3.8-9.6-2.4 0-4 4.2-4 10.8v6H295.3l-.3-7.2c-.4-7.1-1.3-9.6-3.5-9.6-2.1 0-3.6 3.9-4 10.4l-.4 6.4-2.4.2-2.5.3zm35.5 9.7c-.2-.5-.2-5.3-.1-10.7l.2-9.7 2.4-.2 2.5-.2v21.8h-2.3c-1.3 0-2.4-.5-2.7-1zm11.6-.9c-3.5-2.3-4-3.8-2-5.2 2.2-1.5 2.3-1.5 5 .8 2.5 2 5.5 2.2 6 .1.1-1-1.1-1.8-4.6-3.4-3.6-1.7-5-2.7-5.7-4.5-1.4-3.3.4-6.5 4.5-7.7 5.8-1.8 12.2 2.2 8.5 5.3-1 .8-1.6.8-3 .1-2.8-1.2-5-1-4.7.4.1.6 1.9 1.8 4 2.6 2 .7 4.3 2 5 3 2 2.3 1.7 6.3-.5 8.5-2.6 2.6-8.7 2.6-12.5 0zm21.1 0c-1.3-1.7-1.5-3-1.5-8.3 0-5.5-.2-6.3-1.5-7-2-1-2-3.5 0-4.5 1-.6 1.4-1.7 1.6-5 .2-4.3.3-4.4 2.5-4.4s2.2.1 2.6 4.5c.3 4.3.5 4.5 2.6 4.9 1.8.3 2.3.7 2.3 2.2 0 1.5-.5 2-2.3 2.3-2.2.3-2.2.3-2.5 6.1l-.2 5.8h2c1.7 0 1.9.3 1.7 2.5-.2 2.2-.5 2.4-3 2.6-2.2.2-3-.1-4.3-1.8zm27.3.5c-1.7-.8-3.5-2-4-2.5-.8-1-.6-1.5 1-2.8l2-1.6 3.3 1.9c3.9 2.3 6.2 2.4 8.8.3 3.9-3 1.4-7.2-5.1-8.6-3.4-.7-7.7-3-9-5-2.4-3.4-1-8.4 3.2-10.6 4.7-2.4 13-2 15.7.7 1.1 1 1.1 1.3-.3 2.6-1.4 1.4-1.6 1.5-5.2.3-3.4-1-4-1-6.5 0-5.4 2.2-3.2 5.4 5.6 8 8.2 2.5 11 8 7.3 14-2.8 4.5-10.7 6-16.8 3.3zm24.4-.6c-1.3-1.6-1.6-3-1.6-8.2 0-5.5-.2-6.3-1.5-7-2-1-2-3.5 0-4.5 1.1-.6 1.5-1.7 1.6-5 .3-4.3.3-4.4 2.5-4.4s2.3.1 2.6 4.5c.4 4.3.5 4.5 2.6 4.9 1.8.3 2.3.7 2.3 2.2 0 1.5-.5 2-2.3 2.3-2.2.3-2.2.3-2.4 6.1l-.2 5.8h2c1.7 0 1.8.3 1.6 2.5-.2 2.2-.5 2.4-3 2.6-2.1.2-3-.1-4.2-1.8zm15.9.5c-3-1.8-3.9-4.6-4.2-13.1l-.2-6.8h5.2l.4 7.2c.4 7.8 1.2 9.7 4.2 9.7s4.4-3.1 4.5-10.4v-6.5h5.1l.4 7.4c.4 6.7.6 7.4 2.2 8.7 1.7 1.2 1.8 1.6 1 3.3-1 2.3-2.5 2.5-5 .8-1.7-1.1-2-1.1-3.6 0-2.3 1.6-7.2 1.5-10-.3zm26 0a11 11 0 0 1 .6-19.3c3.2-1.7 6.2-1.9 10.5-.8 1 .2 1.2-.8 1.4-4.9l.2-5 2.4.2 2.4.2V639.4l-7.5.2c-6.4.1-7.9 0-10-1.3zm10.4-4.5a7 7 0 0 0-2.2-11.2c-2-.8-2.6-.8-4.7.4-5.8 3.5-3.8 12.3 2.8 12.3a6 6 0 0 0 4-1.5zm15.9 4.5c-7.5-4.6-7.2-15.8.6-19.7 3.9-2 9-1.7 11.8.6 3.7 3.1 3.7 6.5 0 10.6-.9 1-3.2 2-5.2 2.6-3.9 1-4.5 2.3-1.3 2.7 1.2.2 2.5-.4 3.9-1.8 1.8-1.8 2.2-1.9 3.9-1.1 2.6 1.2 2.1 3.7-1.1 5.9a13 13 0 0 1-12.6.2zm7.7-11.6c2.4-1.5 2.4-4 0-4.6-3.3-.8-8.9 3.5-7.5 5.8.7 1 5.2.3 7.5-1.2zm11.5 2.4v-10.8l5.8-.4c11.3-1 14 1.7 14 14v7.5h-5.2l.3-5c.3-6.5-.9-11-3.3-12-1.7-.8-2.1-.6-4 1.2-1.7 1.8-2 2.6-2.3 8.9l-.4 6.9-2.4.2-2.5.3V629zm27 8.7c-1.2-1.6-1.5-3-1.5-8.2 0-5.5-.2-6.3-1.5-7-2-1-2-3.5 0-4.5 1.1-.6 1.5-1.7 1.6-5 .3-4.3.3-4.4 2.5-4.4s2.3.1 2.6 4.5c.4 4.3.5 4.5 2.7 4.9 1.7.3 2.2.7 2.2 2.2 0 1.5-.5 2-2.2 2.3-2.3.3-2.3.3-2.5 6.1l-.2 5.8h2c1.7 0 1.8.3 1.6 2.5-.2 2.2-.5 2.4-3 2.6-2.1.2-3-.1-4.2-1.8zm13.4.1c-3.5-2.3-4-3.8-2-5.2 2.2-1.5 2.3-1.5 5 .8 2.5 2 5.5 2.2 5.9.1.2-1-1-1.8-4.5-3.4-3.7-1.7-5-2.7-5.8-4.5-1.4-3.3.5-6.5 4.5-7.7 5.8-1.8 12.3 2.2 8.6 5.3-1 .8-1.6.8-3 .1-2.9-1.2-5-1-4.8.4.2.6 2 1.8 4 2.6 2 .7 4.4 2 5 3 2 2.3 1.8 6.3-.5 8.5-2.6 2.6-8.6 2.6-12.4 0zm42.3 1c-.2-.6-.3-7.6-.2-15.6l.2-14.6 2-.2c1-.1 2.3.2 2.8.8.5.6 2.6 5.4 4.8 10.7 2.2 5.3 4.2 9.7 4.6 9.7.4 0 2.6-4.7 4.9-10.5l4.2-10.5h5.2V639.4h-4.5l-.2-7.3c-.1-4-.5-7.3-.8-7.3-.3 0-1.7 2.8-3.1 6.2-1.4 3.4-3 6.7-3.6 7.5-2 2.3-3.9 1.6-5.5-2.3l-3.5-7.7-2-4-.4 7.4-.4 7.5-2 .2c-1.2.2-2.2-.1-2.5-.7zm37.3-.6c-7.5-4.6-7.2-15.8.6-19.7 3.9-2 9-1.7 11.8.6 3.7 3.1 3.7 6.5 0 10.6-.9 1-3.2 2-5.2 2.6-3.9 1-4.5 2.3-1.3 2.7 1.2.2 2.5-.4 3.9-1.8 1.8-1.8 2.2-1.9 3.9-1.1 2.6 1.2 2.1 3.7-1.1 5.9a13 13 0 0 1-12.6.2zm7.7-11.6c2.4-1.5 2.4-4 0-4.6-3.3-.8-8.9 3.5-7.5 5.8.7 1 5.2.3 7.5-1.2zm16.2 11.6c-7.5-4.6-7.1-15.8.6-19.7 4-2 9.1-1.7 11.8.6 3.8 3.1 3.8 6.5 0 10.6-.8 1-3.2 2-5.2 2.6-3.8 1-4.5 2.3-1.3 2.7 1.3.2 2.6-.4 4-1.8 1.7-1.8 2.2-1.9 3.8-1.1 2.7 1.2 2.2 3.7-1 5.9a13 13 0 0 1-12.7.2zm7.8-11.6c2.3-1.5 2.3-4 0-4.6-3.3-.8-9 3.5-7.5 5.8.6 1 5.1.3 7.5-1.2zm14.6 11.1c-1.3-1.6-1.6-3-1.6-8.2 0-5.5-.2-6.3-1.5-7-2-1-2-3.5 0-4.5 1.1-.6 1.5-1.7 1.6-5 .3-4.3.3-4.4 2.5-4.4s2.3.1 2.6 4.5c.4 4.3.5 4.5 2.7 4.9 1.7.3 2.2.7 2.2 2.2 0 1.5-.5 2-2.2 2.3-2.3.3-2.3.3-2.5 6.1l-.2 5.8h2c1.7 0 1.8.3 1.6 2.5-.2 2.2-.5 2.4-3 2.6-2.1.2-3-.1-4.2-1.8zm-106.3-18.5c-.4-.5-.8-2-.7-3.2 0-1.2-.2-2.9-.5-3.7-1-3.4 4.1-5.5 6.7-2.6 1 1.1 1.1 1.9.5 4.3-1.5 5.3-4 7.6-6 5.2zm-232-5.1c-2-2 0-5.9 3-5.9 1.5 0 3.7 2 3.7 3.4 0 2.7-4.7 4.4-6.6 2.5zm221.8-34.5c-1.8-1.5-2-2.4-2.7-10.7-.4-5-.5-15.1-.2-23.3.7-20.6 0-20-9.5 7.8-7.3 21.6-8.9 24.2-13.9 23.3-1.9-.4-6.6-9.5-12.4-24-2.6-6.5-4.9-11.8-5.2-11.8-.7 0-1.6 16.7-1 21.2 1.3 12.1 1.4 14.6.1 16.5-1 1.7-1.8 2-5.3 2-3.1 0-4.5-.4-5.6-1.5-1.8-1.9-1.9-3.2-.3-11.7.9-5.1 1.2-13 1.3-33.2.2-26.5.2-26.5 2-27.9a6 6 0 0 1 2.9-1.3c3.4 0 5.1 3.2 12.4 24 3.2 9 11.2 26.1 12.2 26.1.3 0 2.3-4.1 4.3-9.2 6.3-15.9 17.5-37 21.2-40 1.5-1.2 4.7-1.2 6.5.1 1.4 1 1.4 2 1.2 22-.1 14.4.2 24.4 1 32.7 1.5 16 1.5 16.6-.7 18.8-2.3 2.3-5.7 2.4-8.3.1zm-377-.7l-1.8-1.7.5-15.4c.7-18.2 2-14.9-14-40.6-7-11.4-7.3-12.7-3.5-15.2 4.1-2.7 7.6.8 16.6 17 2.8 5 5.6 9.3 6.2 9.3 1.2 0 4.9-5.2 12-17 3-4.9 6-9.2 6.7-9.6 3.4-1.8 7.4.5 7.4 4.2 0 1.7-8.2 16-14.5 25-1.3 1.8-3.2 4.8-4.2 6.6l-2 3.2.4 16.3c.3 16 .3 16.4-1.3 18-2.1 2.1-6.2 2-8.5-.1zm97.9 1.1a9.8 9.8 0 0 1-3.3-2c-1.7-1.5-1.8-1.7-1.2-10.5.3-5 .6-20.5.8-34.5.3-25.2.3-25.4 2-26.8 1.2-1 2.2-1.2 3.9-.8 1.2.4 9.9.5 19.2.4 19.6-.2 21.6.2 21.6 5 0 2.9-2.7 4.8-6.2 4.4-1.8-.2-9.1 0-16.5.5l-13.3.7.2 10.2.3 10.2 10.9-.3 10.9-.3 1.6 2c2 2.7 2 4.3 0 6.2-1.5 1.3-3.1 1.6-12.6 2a57 57 0 0 0-11.6 1.3c-.8.8-1 20.1-.1 21.5.7 1.2 20.8 1.2 26.7 0 5-1 7.8-.5 9.4 2 1.2 1.8 1.2 2.2 0 4.5-1.8 3.9-4.3 4.3-24 4.5-9.5.1-18 0-18.7-.2zm119.1-.5c-15.3-4.4-26.2-17.8-21.7-26.6 1.5-2.8 5.6-6 7.8-6 2.1 0 4.4 2.7 4.4 5.1 0 1.2-.7 3-1.5 4a9 9 0 0 0-1.5 2.4c0 1.3 6 6.8 9 8.3 13.6 6.9 35.4 2.6 40.9-8 1.6-3.1.8-5.2-3-8.6-5-4.3-9.3-5.4-24.4-6.3-15.7-.8-20.2-2-24.1-5.9-3.8-3.7-3.9-7.2-.5-13.6 4.1-7.8 14.4-15 24.6-17.4a52.5 52.5 0 0 1 21.7 0c6.5 2 10.6 7.1 9.4 12-1 4-7 4.2-9 .3-1.5-2.8-3.6-3.4-12-3.4-6.4 0-7.1.2-13.2 3.1-10.9 5.2-15.2 10.5-11 13.3 1 .7 5.6 1.4 12.2 2 17.7 1.4 28.7 4.2 34.7 8.7 2.7 2 6 8.4 6 11.5.1 7.2-5.3 15-13.2 19.2a57 57 0 0 1-35.6 5.9z"/>
  <path fill="#34bbf6" d="M355 457.6c.3-5.9.5-26.9.4-46.6-.1-43.3-.2-101.6 0-147.8l-.5-112c-.5-72.5-.5-78 .7-79.1 1-1 1.5-1.1 2.5-.3 2 1.5 2.3 2.3 2.3 5.3 0 2 .5 3.2 1.7 4.2 1.6 1.3 1.6 1.5.6 6.8-1.8 10.5-1.6 46.6.5 59.3a9 9 0 0 1-.8 5.3c-1.5 3.2-1.5 4.3 0 9 .9 3 1 7.1 1 19.5-.4 27.9.7 77.7 1.7 79.6.7 1.3.7 2.2 0 4.2-.6 1.7-1 10-1 27l-.2 145.6c0 15.8-.4 29.2-.7 29.7-.3.6-2.2 1-4.7 1h-4.1l.6-10.7zm22.4 9.6c-.2-.5 0-3.8.4-7.3a1841.1 1841.1 0 0 0 .8-87.8v-44.6a139211.2 139211.2 0 0 1-.4-211.3c-.1-60.4 0-65 1.1-65.8 2.2-1.4 4.4 1.3 4.4 5.5 0 3 .2 3.6 1.5 4 1.5.3 1.6.7 1.2 4-2.1 16.4-2.4 56.9-.5 62.8 1 2.9.7 6.1-.8 9.7-.8 2-.8 3.2.3 7.9 1 4.5 1.3 8.4 1.1 21.6-.3 27 .8 80 1.8 82.7.6 1.9.6 3 0 4.6-.6 1.5-1 10.2-1 28a562857 562857 0 0 0-.5 185c-.2 2-.3 2-4.6 2-3 0-4.5-.3-4.8-1zm22.6.2a2259.6 2259.6 0 0 0 1-96v-45-78.6c0-20.1-.2-74-.5-119.8-.6-91.3-.7-89.1 4-84.8 1.2 1.1 1.6 2.4 1.6 5.1 0 3.1.2 3.7 1.6 4 1.4.5 1.6.9 1.1 4-1.5 12-2 22-1.6 40.9.2 12.3.6 22 1.1 23.3 1.1 3 1 5.3-.5 9.5-1.2 3.4-1.2 3.9 0 8.7 1.2 4.3 1.3 7.8 1.2 21.6-.4 29 .7 83.5 1.7 84.7.7.8.7 1.9 0 4.6-.6 2.3-.9 12-1 29.3v74.5c-.1 63.4-.3 111.9-.5 113.5 0 1.1-.9 1.3-4.5 1.3-2.6 0-4.6-.3-4.7-.8zm23 .2c-.7-1.2-.7-5.1.2-22.6.4-9.6.6-29.2.4-45.6a1478.1 1478.1 0 0 1 0-36c-.2-48.6-.2-99-.2-128.7 0-20.7-.1-77-.4-125-.5-76.4-.4-87.3.6-88.6 1-1.5 1.1-1.5 3 .3 1.6 1.4 2 2.5 2 5.3s.3 3.8 1.6 4.6c1.6 1 1.6 1.2.6 7.8-1.8 12.3-1.6 53.3.5 65.7.3 2 0 4.2-1 6.8-1.2 3.8-1.2 4.3 0 9.5a92 92 0 0 1 1.1 22.7c-.3 30 .8 85.9 1.8 87.8.7 1.3.7 2.5 0 5.3-.7 2.6-1 11.5-1 30.5 0 171-.2 198.3-1.3 199.6-1.1 1.3-7.2 1.8-8 .6z"/>
  <path fill="#0ab10d" d="M259.5 468c-.4-.5-.5-2.8-.2-5.4.3-2.4.3-5.6.1-7-.2-1.5-.2-13.6.1-27l1-47.5c.6-30.8.6-164.2 0-188.1-.3-13-.1-19.8.4-21.5.6-1.8.6-4.4 0-9.8-1.6-13.3-1.7-15.4-.2-18.3.8-1.5 2-2.7 2.9-2.8 2.1-.3 5.3 4.3 6.2 9.2.5 2.4.7 35.5.5 92.8a981221.8 981221.8 0 0 0-.2 95l-.5 44.2-.6 43 .2 21.9c.2 11.4.1 20.9-.2 21.1-.8 1-8.8 1-9.5.1zm22.5 0c-.5-.6-.5-2.1-.1-4.3.7-4 .8-4.9.8-28.8a9237.9 9237.9 0 0 0 1-264.5c-.2-16.7-.1-25 .5-26.7a27 27 0 0 0-.2-10.5 144 144 0 0 1-1-13.4c0-8.4 3.4-11.9 7-7 3.3 4.5 3.7 8.8 3.7 39.6v51c.1 12 0 42.7-.2 68l-.3 48.3c.2 4.8.2 8-.4 52l-.6 46.4c.3 28.8.4 49.4.1 49.6-.2.2-2.4.5-5 .8-3.1.3-4.8.2-5.3-.5zm24.1-.1c-.2-.6-.1-3.5.3-6.5s.5-6.6.2-8c-.2-1.5-.2-14.2 0-28.2l1-49c.3-13 .4-61.3.3-107.4a16779.5 16779.5 0 0 1 .2-115.6c0-3.1-.3-8.2-.8-11.4-1-6.8-.5-12.1 1.6-14.2 2.3-2.2 3.8-1.4 6.3 3.4l2.2 4.5v91a18411.5 18411.5 0 0 1-.7 150.8l-.6 44.2c.4 18.4.4 46 .2 46.2-.2.2-2.5.5-5 .8-3.8.4-4.9.2-5.2-.6zm22.5.3c-.3-.4 0-3 .4-5.8s.8-6.4.8-8v-21.7a9916.1 9916.1 0 0 0 1-277.2 198 198 0 0 1 .4-27.3c.8-2.3.6-6-1.2-22.8-.7-6.5 1.6-12.1 4.9-12.1 1.3 0 4.4 6.2 5.2 10.5.5 2.5.8 15.8.8 33.7v47.8c0 10.1 0 42.1-.2 71.1a6220.9 6220.9 0 0 1-.8 109.6l-.6 48.7.3 26.8c.1 18.3 0 25.5-.7 26.1-1 1-9.7 1.6-10.3.6z"/>
</svg>
