<svg xmlns="http://www.w3.org/2000/svg" viewBox="0 0 639.8 226">
  <defs>
    <filter id="a" color-interpolation-filters="sRGB" filterUnits="userSpaceOnUse">
      <feColorMatrix values="-1 0 0 0 1 0 -1 0 0 1 0 0 -1 0 1 0 0 0 1 0"/>
    </filter>
  </defs>
  <g style="isolation:isolate">
    <path fill="#d6f7ff" d="M418.5 0h-20v.1l4 14.5h19.8l23 193.2h-39.4l-.7-6.5-6.6 24.7h38.3l43.7-23c10.6-21.3 15-75.2-62-203zM528.2 178l111.6-58.6L451.2 17.3c41.4 49.2 86.6 115.4 77 160.7z"/>
    <path fill="#453d42" d="M390.5 19.6H418l21.8 183.2h-29.3L399 86.8h-1l-31.3 116h-19.9L317 86.1h-.8l-12 116.8h-29.5l22.6-183.3h27.4l32.3 128.1h.6z"/>
    <g mask="url(#b)">
      <path fill="#190a06" d="M390.5 19.6H418l21.8 183.2h-29.3L399 86.8h-1l-31.3 116h-19.9L317 86.1h-.8l-12 116.8h-29.5l22.6-183.3h27.4l32.3 128.1h.6z" style="fill:#190a06"/>
    </g>
    <path fill="#453d42" d="M152.2 97.6h52.4v21h-52.3v63h37.9V198l9.6 4H118V18.9h90.9l.6.8c-6.8 5.7-13.9 11.2-17.8 20h-39.4z"/>
    <g mask="url(#c)">
      <path fill="#190a06" d="M152.2 97.6h52.4v21h-52.3v63h37.9V198l9.6 4H118V18.9h90.9l.6.8c-6.8 5.7-13.9 11.2-17.8 20h-39.4z" style="fill:#190a06"/>
    </g>
    <path fill="#453d42" d="M287.7 21v20.2c-5-1.5-9.5-3-14.2-4.3a55.8 55.8 0 0 0-26.7-1.3 33.1 33.1 0 0 0-16.6 8.7c-6 6-8 14-4 21.5A64.7 64.7 0 0 0 237.6 81c10.6 10.6 21.8 20.7 32.8 31 3.3 3.1 6.8 6 10 8.8l-9.6 74c-25 11.8-50.3 8.8-75.9.8v-22.2l3.9 1.4c8.5 3.4 17 6.7 26.3 7.3 9 .5 17.6-.6 25.5-5.3 13.4-8 16.4-22.7 6.7-34.8-5-6-10.7-11.4-16.4-16.8-11.7-11.2-23.9-22-35.4-33.4-8-8-13.1-17.8-13.6-29.8a40.5 40.5 0 0 1 20.9-38.7 66.7 66.7 0 0 1 33.3-9.1 109.4 109.4 0 0 1 41.7 6.9z"/>
    <g mask="url(#d)">
      <path fill="#190a06" d="M287.7 21v20.2c-5-1.5-9.5-3-14.2-4.3a55.8 55.8 0 0 0-26.7-1.3 33.1 33.1 0 0 0-16.6 8.7c-6 6-8 14-4 21.5A64.7 64.7 0 0 0 237.6 81c10.6 10.6 21.8 20.7 32.8 31 3.3 3.1 6.8 6 10 8.8l-9.6 74c-25 11.8-50.3 8.8-75.9.8v-22.2l3.9 1.4c8.5 3.4 17 6.7 26.3 7.3 9 .5 17.6-.6 25.5-5.3 13.4-8 16.4-22.7 6.7-34.8-5-6-10.7-11.4-16.4-16.8-11.7-11.2-23.9-22-35.4-33.4-8-8-13.1-17.8-13.6-29.8a40.5 40.5 0 0 1 20.9-38.7 66.7 66.7 0 0 1 33.3-9.1 109.4 109.4 0 0 1 41.7 6.9z" style="fill:#190a06"/>
    </g>
    <path fill="#453d42" d="M0 18.9h34l32 83 33-83h15l.2 38.8L83 123.9v77.9H48v-76.9L0 18.9z"/>
    <g mask="url(#e)">
      <path fill="#190a06" d="M0 18.9h34l32 83 33-83h15l.2 38.8L83 123.9v77.9H48v-76.9L0 18.9z" style="fill:#190a06"/>
    </g>
    <path fill="#343d44" d="M451.7 51l-4.2 12.6v9.2h-3v-9L440.4 51h2.9l2.7 9.8 2.8-9.8zM453.5 62q0-7.2 1.4-9.3a5.1 5.1 0 0 1 4.6-2q3.7 0 4.9 2.3t1.2 8.4a35.2 35.2 0 0 1-.6 7.5 5.4 5.4 0 0 1-1.8 3.1 5.9 5.9 0 0 1-3.6 1 6 6 0 0 1-3.6-1 5.4 5.4 0 0 1-1.9-3 29 29 0 0 1-.6-7zm9 0q0-6.1-.7-7.6a2.4 2.4 0 0 0-4.5.3 19.2 19.2 0 0 0-.7 6v1.1a31.6 31.6 0 0 0 .5 6.8 2.4 2.4 0 0 0 2.5 2 2.5 2.5 0 0 0 2-1.1q1-1.2 1-6.6zM480 67.7q0 5.5-4.8 5.5-5.4 0-5.4-5.5V51.1h2.9v15.4a9.3 9.3 0 0 0 .4 3.5 1.8 1.8 0 0 0 1.9.9q1.4 0 1.8-1a12 12 0 0 0 .3-3.5V51h3zM494.6 72.8h-2.3L486.8 58h-.1v15H484V51h2.3L492 66V51h2.6zM510 65.2a11.1 11.1 0 0 1-1.3 5.8q-1.2 2-4.5 2a4.5 4.5 0 0 1-4.2-2q-1.3-2.2-1.3-8.3l.2-3.8a23.5 23.5 0 0 1 .4-4.2 6.1 6.1 0 0 1 1-2 4.3 4.3 0 0 1 1.8-1.5 6.3 6.3 0 0 1 2.5-.5 5.3 5.3 0 0 1 3.6 1.2 4.5 4.5 0 0 1 1.6 3.3l-2.8 1q-.3-3.1-2.4-3.1a2.2 2.2 0 0 0-2.2 1.6 16.6 16.6 0 0 0-.6 5.4v1.1l.1 4.2.3 3a3.3 3.3 0 0 0 .5 1.4 2 2 0 0 0 .8.7 2.4 2.4 0 0 0 1 .2 2 2 0 0 0 1.6-.6 3.8 3.8 0 0 0 .8-2 26.6 26.6 0 0 0 .2-4h-2.6v-2.6h5.5zM453.2 101.8h-8V80.1h7.8v2.5h-4.8v6.9h4.5v2.4h-4.5v7.5h5zM465.6 101.5a6 6 0 0 1-7.2-1.4q-2-2-2-8.5 0-7 2-9.5a5.8 5.8 0 0 1 4.7-2.4 11.8 11.8 0 0 1 2.5.3v2.7a5 5 0 0 0-1.9-.4 3.5 3.5 0 0 0-2.9 1.8q-1.2 1.7-1.2 6.8a33 33 0 0 0 .3 4.8 5 5 0 0 0 1.2 2.7 3.2 3.2 0 0 0 2.4 1 5.6 5.6 0 0 0 2-.5zM469.2 91q0-7.2 1.4-9.3a5.1 5.1 0 0 1 4.6-2q3.6 0 4.8 2.3t1.2 8.4a35.2 35.2 0 0 1-.5 7.5 5.4 5.4 0 0 1-1.9 3.1 5.9 5.9 0 0 1-3.6 1 6 6 0 0 1-3.6-1 5.4 5.4 0 0 1-1.8-3 29 29 0 0 1-.6-7zm9 0q0-6.1-.8-7.6a2.4 2.4 0 0 0-4.5.3 19.2 19.2 0 0 0-.6 6v1.1a31.6 31.6 0 0 0 .5 6.8 2.4 2.4 0 0 0 2.5 2 2.5 2.5 0 0 0 2-1.1q.9-1.2.9-6.6zM495.7 101.8h-2.3L487.8 87v15h-2.6V80h2.3L493 95h.1V80h2.6zM499.8 91q0-7.2 1.4-9.3a5.1 5.1 0 0 1 4.6-2q3.7 0 4.9 2.3t1.2 8.4a35.2 35.2 0 0 1-.6 7.5 5.4 5.4 0 0 1-1.8 3.1 5.9 5.9 0 0 1-3.6 1 6 6 0 0 1-3.6-1 5.4 5.4 0 0 1-1.9-3 29 29 0 0 1-.6-7zm9 0q0-6.1-.7-7.6a2.4 2.4 0 0 0-4.5.3 19.2 19.2 0 0 0-.7 6v1.1a31.6 31.6 0 0 0 .5 6.8 2.4 2.4 0 0 0 2.5 2 2.5 2.5 0 0 0 2-1.1q1-1.2 1-6.6zM530.6 101.8H528L527 88h-.1l-3 14H522l-2.8-14h-.1l-1.2 14h-2.7l2.1-21.8h2.5l3 15.3h.1L526 80h2.6zM534.3 80h3v21.8h-3zM549 82.9a5.6 5.6 0 0 0-2.6-.8 2.6 2.6 0 0 0-2 .8 2.7 2.7 0 0 0-.8 2 3.8 3.8 0 0 0 .5 1.8 20.4 20.4 0 0 0 2.2 3 29.4 29.4 0 0 1 2.6 3.5 6.6 6.6 0 0 1 .9 3.5 5.4 5.4 0 0 1-1.5 4 5 5 0 0 1-3.8 1.4 8.7 8.7 0 0 1-3.2-.7v-2.6a7.7 7.7 0 0 0 1.2.6 3.8 3.8 0 0 0 1.6.4 2.8 2.8 0 0 0 2-.9 3 3 0 0 0 1-2.2 3.6 3.6 0 0 0-.5-1.7 14.8 14.8 0 0 0-1.5-2.1l-2-2.4a12.8 12.8 0 0 1-1.7-2.6 6.5 6.5 0 0 1-.6-2.8 5.4 5.4 0 0 1 1.4-3.8 4.7 4.7 0 0 1 3.6-1.5 7 7 0 0 1 3.1.7zM561.5 82.6h-3.3v19.3h-3V82.5H552V80h9.6zM455.9 111.9a5.6 5.6 0 0 0-2.6-.8 2.6 2.6 0 0 0-2 .8 2.7 2.7 0 0 0-.8 2 3.8 3.8 0 0 0 .5 1.8 20.4 20.4 0 0 0 2.1 3 29.4 29.4 0 0 1 2.6 3.5 6.6 6.6 0 0 1 1 3.5 5.4 5.4 0 0 1-1.5 3.9 5 5 0 0 1-3.8 1.5 8.7 8.7 0 0 1-3.2-.8v-2.6a7.7 7.7 0 0 0 1.2.6 3.8 3.8 0 0 0 1.6.4 2.8 2.8 0 0 0 2-.8 3 3 0 0 0 .9-2.2 3.6 3.6 0 0 0-.4-1.7 14.8 14.8 0 0 0-1.5-2.2l-2-2.4a12.8 12.8 0 0 1-1.7-2.5 6.5 6.5 0 0 1-.6-2.8 5.4 5.4 0 0 1 1.4-3.9 4.7 4.7 0 0 1 3.6-1.5 7 7 0 0 1 3 .8zM468.4 111.6H465v19.3h-3v-19.3h-3.3V109h9.6zM481.7 125.7q0 5.5-4.9 5.5-5.3 0-5.3-5.5v-16.6h2.9v15.4a9.3 9.3 0 0 0 .4 3.4 1.8 1.8 0 0 0 1.8 1q1.5 0 1.8-1a12 12 0 0 0 .4-3.5V109h2.9zM486 109h4.3a5.7 5.7 0 0 1 4.8 2.3q1.7 2.3 1.7 8.6 0 6-1.5 8.5t-5.5 2.4h-3.7zm3 2.3v17.3a4.8 4.8 0 0 0 2.8-.6 4.3 4.3 0 0 0 1.5-2.6 24.6 24.6 0 0 0 .4-5.6q0-4.7-.9-6.6a3.4 3.4 0 0 0-3.4-1.9zM508.4 130.8h-7.8v-21.7h7.7v2.5h-4.8v6.9h4.5v2.4h-4.5v7.5h5zM522.2 130.8h-2.3l-5.6-14.9v15h-2.7V109h2.4l5.5 14.9h.1v-15h2.6zM534.8 111.6h-3.3v19.3h-3v-19.3h-3.3V109h9.6zM544.9 111.9a5.6 5.6 0 0 0-2.6-.8 2.6 2.6 0 0 0-2 .8 2.7 2.7 0 0 0-.8 2 3.8 3.8 0 0 0 .5 1.8 20.4 20.4 0 0 0 2.2 3 29.4 29.4 0 0 1 2.6 3.5 6.6 6.6 0 0 1 .9 3.5 5.4 5.4 0 0 1-1.5 4 5 5 0 0 1-3.8 1.4 8.7 8.7 0 0 1-3.2-.7v-2.6h.1a7.7 7.7 0 0 0 1 .6 3.8 3.8 0 0 0 1.7.4 2.8 2.8 0 0 0 2.1-.9 3 3 0 0 0 .8-2.2 3.6 3.6 0 0 0-.4-1.7 14.8 14.8 0 0 0-1.5-2.1l-2-2.4a12.8 12.8 0 0 1-1.7-2.6 6.5 6.5 0 0 1-.6-2.8 5.4 5.4 0 0 1 1.4-3.9 4.7 4.7 0 0 1 3.6-1.4 7 7 0 0 1 3.1.7zM551.8 111.3a7.1 7.1 0 0 1-1.6 4.5l-1-.5a6.4 6.4 0 0 0 1.3-3 1.1 1.1 0 0 0 0-.3H549v-3h3zM466.9 159.8h-2.7L463 146h-.1l-3 14h-1.8l-2.8-14h-.1l-1.1 14h-2.8l2.2-21.8h2.5l3 15.2 3.2-15.2h2.5zM478 159.8h-8v-21.7h7.8v2.5H473v6.9h4.5v2.4H473v7.5h5zM489.3 159.8h-7.9v-21.7h7.8v2.5h-4.9v6.9h4.5v2.4h-4.5v7.5h5zM501 140.6h-3.3v19.3h-3v-19.3h-3.3V138h9.6zM457 181.3V179a15.7 15.7 0 0 1 1-5.4 6 6 0 0 1 2.6-3 8 8 0 0 1 4-1 6.8 6.8 0 0 1 5.3 2.2 8.8 8.8 0 0 1 2 6 14.1 14.1 0 0 1-.8 4.5 39.5 39.5 0 0 1-2.7 6l-3.7 6.6h6.4v6h-14.4v-2l8.7-16a12.3 12.3 0 0 0 .7-2 9.4 9.4 0 0 0 .5-2.6 4 4 0 0 0-.7-2.3 2 2 0 0 0-1.6-1 2 2 0 0 0-2 1.3 8 8 0 0 0-.6 3.7v1.4zM483.9 169.4q3.3 0 5.4 3.5t2 12.4q0 8.2-1.9 12.2t-5.7 4q-3.3 0-5.4-3.6t-2.1-12.3q0-9.2 2.1-12.7t5.5-3.5zm-.1 6q-.9 0-1.6 1.2t-.7 8.4q0 7.9.8 9.1t1.5 1.3q1.3 0 1.8-2a35.8 35.8 0 0 0 .4-6.9v-1.6q0-6-.5-7.8t-1.7-1.7zM504.5 200.8h-5v-25h-3V170h8zM522.9 184.3a4.7 4.7 0 0 1 3 3 13.5 13.5 0 0 1 .9 5.1 11.4 11.4 0 0 1-1.7 6.5q-1.7 2.6-6 2.6t-5.8-2.7a12.3 12.3 0 0 1-1.7-6.5q0-6.5 4-8-3.2-1.8-3.2-6.9a8.5 8.5 0 0 1 1.8-5.7 7 7 0 0 1 10.1 0 8.7 8.7 0 0 1 1.8 5.8q0 5.3-3.2 6.7zm-3.6 12q2.3 0 2.3-4.5a8 8 0 0 0-.5-3.4 1.8 1.8 0 0 0-1.7-1q-2.4 0-2.4 4.3 0 4.6 2.3 4.6zm.1-14.3q2 0 2-3.8a5.7 5.7 0 0 0-.5-2.7 1.7 1.7 0 0 0-1.5-1q-2.1 0-2.1 3.6 0 3.9 2.1 3.9z"/>
  </g>
</svg>
